<mxfile host="app.diagrams.net" modified="2023-03-11T08:37:12.508Z" agent="5.0 (Windows NT 10.0; Win64; x64) AppleWebKit/537.36 (KHTML, like Gecko) Chrome/110.0.0.0 Safari/537.36 Edg/110.0.1587.63" etag="UprN78qbevr8HLT533K6" version="21.0.6" type="github">
  <diagram id="kWV1w4FAC4IXIcKnAsgC" name="第 1 页">
    <mxGraphModel dx="1359" dy="644" grid="1" gridSize="10" guides="1" tooltips="1" connect="1" arrows="1" fold="1" page="1" pageScale="1" pageWidth="827" pageHeight="1169" math="0" shadow="0">
      <root>
        <mxCell id="0" />
        <mxCell id="1" parent="0" />
        <mxCell id="hsqiQFNtVwB-LhybfyuJ-1" value="" style="endArrow=none;dashed=1;rounded=0;html=1;strokeColor=#666666;" parent="1" edge="1">
          <mxGeometry width="50" height="50" relative="1" as="geometry">
            <mxPoint x="40" y="40" as="sourcePoint" />
            <mxPoint x="790" y="40" as="targetPoint" />
          </mxGeometry>
        </mxCell>
        <mxCell id="hsqiQFNtVwB-LhybfyuJ-2" value="" style="endArrow=none;dashed=1;html=1;rounded=0;strokeColor=#666666;" parent="1" edge="1">
          <mxGeometry width="50" height="50" relative="1" as="geometry">
            <mxPoint x="40" y="1130" as="sourcePoint" />
            <mxPoint x="790" y="1130" as="targetPoint" />
          </mxGeometry>
        </mxCell>
        <mxCell id="hsqiQFNtVwB-LhybfyuJ-3" value="" style="endArrow=none;dashed=1;html=1;rounded=0;strokeColor=#666666;" parent="1" edge="1">
          <mxGeometry width="50" height="50" relative="1" as="geometry">
            <mxPoint x="40" y="40" as="sourcePoint" />
            <mxPoint x="40" y="1130" as="targetPoint" />
          </mxGeometry>
        </mxCell>
        <mxCell id="hsqiQFNtVwB-LhybfyuJ-4" value="" style="endArrow=none;dashed=1;html=1;rounded=0;strokeColor=#666666;" parent="1" edge="1">
          <mxGeometry width="50" height="50" relative="1" as="geometry">
            <mxPoint x="790" y="40" as="sourcePoint" />
            <mxPoint x="790" y="1130" as="targetPoint" />
          </mxGeometry>
        </mxCell>
        <mxCell id="hsqiQFNtVwB-LhybfyuJ-5" value="&lt;span style=&quot;font-size: 48px;&quot;&gt;朱悦婷&lt;/span&gt;" style="text;html=1;strokeColor=none;fillColor=none;align=left;verticalAlign=middle;whiteSpace=wrap;rounded=0;fontFamily=Source Han Sans;fontSize=50;fontStyle=1;spacing=2;fontColor=#13273E;" parent="1" vertex="1">
          <mxGeometry x="60" y="57" width="211" height="60" as="geometry" />
        </mxCell>
        <mxCell id="hsqiQFNtVwB-LhybfyuJ-15" value="" style="endArrow=none;dashed=1;html=1;rounded=0;strokeColor=#666666;" parent="1" edge="1">
          <mxGeometry width="50" height="50" relative="1" as="geometry">
            <mxPoint x="547" y="170" as="sourcePoint" />
            <mxPoint x="547" y="1128.5" as="targetPoint" />
          </mxGeometry>
        </mxCell>
        <mxCell id="hsqiQFNtVwB-LhybfyuJ-16" value="" style="endArrow=none;dashed=1;rounded=0;html=1;strokeColor=#666666;" parent="1" edge="1">
          <mxGeometry width="50" height="50" relative="1" as="geometry">
            <mxPoint x="40" y="169" as="sourcePoint" />
            <mxPoint x="790" y="169" as="targetPoint" />
          </mxGeometry>
        </mxCell>
        <mxCell id="hsqiQFNtVwB-LhybfyuJ-7" value="Vegetable@Gmail.com" style="text;html=1;strokeColor=none;fillColor=none;align=left;verticalAlign=middle;whiteSpace=wrap;rounded=0;fontFamily=Inter;fontSize=13;fontColor=#404964;" parent="1" vertex="1">
          <mxGeometry x="251" y="124" width="170" height="20" as="geometry" />
        </mxCell>
        <mxCell id="hsqiQFNtVwB-LhybfyuJ-9" value="" style="shape=image;aspect=fixed;image=data:image/svg+xml,PD94bWwgdmVyc2lvbj0iMS4wIiBzdGFuZGFsb25lPSJubyI/PjwhRE9DVFlQRSBzdmcgUFVCTElDICItLy9XM0MvL0RURCBTVkcgMS4xLy9FTiIgImh0dHA6Ly93d3cudzMub3JnL0dyYXBoaWNzL1NWRy8xLjEvRFREL3N2ZzExLmR0ZCI+PHN2ZyB0PSIxNjUzMzczOTQ3NzM5IiBjbGFzcz0iaWNvbiIgdmlld0JveD0iMCAwIDEwMjQgMTAyNCIgdmVyc2lvbj0iMS4xIiB4bWxucz0iaHR0cDovL3d3dy53My5vcmcvMjAwMC9zdmciIHAtaWQ9IjcwMjAiIHhtbG5zOnhsaW5rPSJodHRwOi8vd3d3LnczLm9yZy8xOTk5L3hsaW5rIiB3aWR0aD0iMjAwIiBoZWlnaHQ9IjIwMCI+PGRlZnM+PHN0eWxlIHR5cGU9InRleHQvY3NzIj5AZm9udC1mYWNlIHsgZm9udC1mYW1pbHk6IGZlZWRiYWNrLWljb25mb250OyBzcmM6IHVybCgiLy9hdC5hbGljZG4uY29tL3QvZm9udF8xMDMxMTU4X3U2OXc4eWh4ZHUud29mZjI/dD0xNjMwMDMzNzU5OTQ0IikgZm9ybWF0KCJ3b2ZmMiIpLCB1cmwoIi8vYXQuYWxpY2RuLmNvbS90L2ZvbnRfMTAzMTE1OF91Njl3OHloeGR1LndvZmY/dD0xNjMwMDMzNzU5OTQ0IikgZm9ybWF0KCJ3b2ZmIiksIHVybCgiLy9hdC5hbGljZG4uY29tL3QvZm9udF8xMDMxMTU4X3U2OXc4eWh4ZHUudHRmP3Q9MTYzMDAzMzc1OTk0NCIpIGZvcm1hdCgidHJ1ZXR5cGUiKTsgfQo8L3N0eWxlPjwvZGVmcz48cGF0aCBkPSJNODc0LjY2NjY2NyAzNzUuMTg5MzMzVjc0Ni42NjY2NjdhNjQgNjQgMCAwIDEtNjQgNjRIMjEzLjMzMzMzM2E2NCA2NCAwIDAgMS02NC02NFYzNzUuMTg5MzMzbDY0IDU0LjI1MDY2N1Y3NDYuNjY2NjY3aDU5Ny4zMzMzMzRWNDI5LjQ0bDY0LTU0LjI1MDY2N3pNODEwLjY2NjY2NyAyMTMuMzMzMzMzYTY0Ljc4OTMzMyA2NC43ODkzMzMgMCAwIDEgMjIuODI2NjY2IDQuMTgxMzM0IDYzLjYxNiA2My42MTYgMCAwIDEgMjYuNzk0NjY3IDE5LjQxMzMzMyA2NC4zMiA2NC4zMiAwIDAgMSA5LjM0NCAxNS40NjY2NjdjMi43NzMzMzMgNi41NzA2NjcgNC40OCAxMy42OTYgNC45MDY2NjcgMjEuMTg0TDg3NC42NjY2NjcgMjc3LjMzMzMzM3YyMS4zMzMzMzRMNTUzLjUzNiA1NzIuNTg2NjY3YTY0IDY0IDAgMCAxLTc5Ljg5MzMzMyAyLjUzODY2NmwtMy4xNzg2NjctMi41NkwxNDkuMzMzMzMzIDI5OC42NjY2Njd2LTIxLjMzMzMzNGE2My43ODY2NjcgNjMuNzg2NjY3IDAgMCAxIDM1LjEzNi01Ny4xMzA2NjZBNjMuODcyIDYzLjg3MiAwIDAgMSAyMTMuMzMzMzMzIDIxMy4zMzMzMzNoNTk3LjMzMzMzNHogbS05LjYgNjRoLTU3OC4xMzMzMzRMNTEyIDUyMy44ODI2NjcgODAxLjA2NjY2NyAyNzcuMzMzMzMzeiIgcC1pZD0iNzAyMSIgZmlsbD0iIzRENEQ0RCI+PC9wYXRoPjwvc3ZnPg==;" parent="1" vertex="1">
          <mxGeometry x="230" y="126" width="18" height="18" as="geometry" />
        </mxCell>
        <mxCell id="hsqiQFNtVwB-LhybfyuJ-8" value="(+86) 18066800386" style="text;html=1;strokeColor=none;fillColor=none;align=left;verticalAlign=middle;whiteSpace=wrap;rounded=0;fontFamily=Inter;fontSize=13;fontColor=#404964;fontStyle=0" parent="1" vertex="1">
          <mxGeometry x="82" y="125" width="142" height="20" as="geometry" />
        </mxCell>
        <mxCell id="hsqiQFNtVwB-LhybfyuJ-18" value="教育" style="text;html=1;strokeColor=none;fillColor=none;align=left;verticalAlign=middle;whiteSpace=wrap;rounded=0;fontFamily=Source Han Sans;fontSize=21;fontColor=#13273E;fontStyle=1" parent="1" vertex="1">
          <mxGeometry x="568" y="189" width="50" height="30" as="geometry" />
        </mxCell>
        <mxCell id="hsqiQFNtVwB-LhybfyuJ-20" value="" style="endArrow=none;html=1;rounded=0;fontFamily=宋体-简;fontSize=16;fontColor=#2B4259;strokeColor=#404964;" parent="1" edge="1">
          <mxGeometry width="50" height="50" relative="1" as="geometry">
            <mxPoint x="569" y="221" as="sourcePoint" />
            <mxPoint x="769" y="221" as="targetPoint" />
          </mxGeometry>
        </mxCell>
        <mxCell id="hsqiQFNtVwB-LhybfyuJ-23" value="奖项" style="text;html=1;strokeColor=none;fillColor=none;align=left;verticalAlign=middle;whiteSpace=wrap;rounded=0;fontFamily=Source Han Sans;fontSize=21;fontColor=#13273E;fontStyle=1" parent="1" vertex="1">
          <mxGeometry x="570" y="435" width="50" height="30" as="geometry" />
        </mxCell>
        <mxCell id="hsqiQFNtVwB-LhybfyuJ-25" value="" style="endArrow=none;html=1;rounded=0;fontFamily=宋体-简;fontSize=16;fontColor=#2B4259;strokeColor=#404964;" parent="1" edge="1">
          <mxGeometry width="50" height="50" relative="1" as="geometry">
            <mxPoint x="571" y="467" as="sourcePoint" />
            <mxPoint x="771" y="467" as="targetPoint" />
          </mxGeometry>
        </mxCell>
        <mxCell id="hsqiQFNtVwB-LhybfyuJ-33" value="&lt;font style=&quot;font-size: 14px;&quot;&gt;班级&amp;nbsp; &amp;nbsp; 本硕博2001班&lt;/font&gt;" style="text;html=1;strokeColor=none;fillColor=none;align=left;verticalAlign=middle;whiteSpace=wrap;rounded=0;fontFamily=Source Han Sans;fontSize=12;fontColor=#6D7684;fontStyle=0" parent="1" vertex="1">
          <mxGeometry x="568" y="270" width="199" height="23" as="geometry" />
        </mxCell>
        <mxCell id="hsqiQFNtVwB-LhybfyuJ-38" value="&lt;font style=&quot;font-size: 14px;&quot;&gt;成绩&amp;nbsp; &amp;nbsp; 90.85 / 100.0&lt;/font&gt;" style="text;html=1;strokeColor=none;fillColor=none;align=left;verticalAlign=middle;whiteSpace=wrap;rounded=0;fontFamily=Source Han Sans;fontSize=12;fontColor=#6D7684;fontStyle=0" parent="1" vertex="1">
          <mxGeometry x="568" y="302" width="199" height="23" as="geometry" />
        </mxCell>
        <mxCell id="hsqiQFNtVwB-LhybfyuJ-39" value="&lt;font style=&quot;font-size: 14px;&quot;&gt;排名&amp;nbsp; &amp;nbsp; 1/20&amp;nbsp;&amp;nbsp;&lt;/font&gt;" style="text;html=1;strokeColor=none;fillColor=none;align=left;verticalAlign=middle;whiteSpace=wrap;rounded=0;fontFamily=Source Han Sans;fontSize=12;fontColor=#6D7684;fontStyle=0" parent="1" vertex="1">
          <mxGeometry x="568" y="337" width="199" height="23" as="geometry" />
        </mxCell>
        <mxCell id="hsqiQFNtVwB-LhybfyuJ-48" value="&lt;font style=&quot;font-size: 14px;&quot;&gt;校三好学生奖学金&lt;/font&gt;" style="text;html=1;strokeColor=none;fillColor=none;align=left;verticalAlign=middle;whiteSpace=wrap;rounded=0;fontFamily=Source Han Sans;fontSize=12;fontColor=#6D7684;fontStyle=0" parent="1" vertex="1">
          <mxGeometry x="568" y="554.27" width="143" height="23" as="geometry" />
        </mxCell>
        <mxCell id="hsqiQFNtVwB-LhybfyuJ-49" value="&lt;font style=&quot;font-size: 14px;&quot;&gt;国家励志奖学金&lt;/font&gt;" style="text;html=1;strokeColor=none;fillColor=none;align=left;verticalAlign=middle;whiteSpace=wrap;rounded=0;fontFamily=Source Han Sans;fontSize=12;fontColor=#6D7684;fontStyle=0" parent="1" vertex="1">
          <mxGeometry x="568" y="587.77" width="143" height="23" as="geometry" />
        </mxCell>
        <mxCell id="hsqiQFNtVwB-LhybfyuJ-52" value="&lt;font style=&quot;font-size: 14px;&quot;&gt;国家奖学金&lt;/font&gt;" style="text;html=1;strokeColor=none;fillColor=none;align=left;verticalAlign=middle;whiteSpace=wrap;rounded=0;fontFamily=Source Han Sans;fontSize=12;fontColor=#404964;fontStyle=1" parent="1" vertex="1">
          <mxGeometry x="569" y="487.5" width="143" height="23" as="geometry" />
        </mxCell>
        <mxCell id="hsqiQFNtVwB-LhybfyuJ-55" value="&lt;font style=&quot;font-size: 14px;&quot;&gt;2022&lt;/font&gt;" style="text;html=1;strokeColor=none;fillColor=none;align=right;verticalAlign=middle;whiteSpace=wrap;rounded=0;fontFamily=Source Han Sans;fontSize=12;fontColor=#6D7684;fontStyle=0" parent="1" vertex="1">
          <mxGeometry x="737" y="557.27" width="30" height="20" as="geometry" />
        </mxCell>
        <mxCell id="hsqiQFNtVwB-LhybfyuJ-56" value="&lt;font style=&quot;font-size: 14px;&quot;&gt;2021&lt;/font&gt;" style="text;html=1;strokeColor=none;fillColor=none;align=right;verticalAlign=middle;whiteSpace=wrap;rounded=0;fontFamily=Source Han Sans;fontSize=12;fontColor=#6D7684;fontStyle=0" parent="1" vertex="1">
          <mxGeometry x="737" y="589.27" width="30" height="20" as="geometry" />
        </mxCell>
        <mxCell id="hsqiQFNtVwB-LhybfyuJ-59" value="&lt;font style=&quot;font-size: 14px;&quot;&gt;2022&lt;/font&gt;" style="text;html=1;strokeColor=none;fillColor=none;align=right;verticalAlign=middle;whiteSpace=wrap;rounded=0;fontFamily=Source Han Sans;fontSize=12;fontColor=#404964;fontStyle=1" parent="1" vertex="1">
          <mxGeometry x="737" y="487.5" width="30" height="20" as="geometry" />
        </mxCell>
        <mxCell id="csp5jKro6aII4pgKmo1C-1" value="项目" style="text;html=1;strokeColor=none;fillColor=none;align=left;verticalAlign=middle;whiteSpace=wrap;rounded=0;fontFamily=Source Han Sans;fontSize=21;fontColor=#13273E;fontStyle=1" parent="1" vertex="1">
          <mxGeometry x="60" y="189" width="50" height="30" as="geometry" />
        </mxCell>
        <mxCell id="csp5jKro6aII4pgKmo1C-3" value="" style="endArrow=none;html=1;rounded=0;fontFamily=宋体-简;fontSize=16;fontColor=#2B4259;strokeColor=#404964;" parent="1" edge="1">
          <mxGeometry width="50" height="50" relative="1" as="geometry">
            <mxPoint x="60" y="221" as="sourcePoint" />
            <mxPoint x="526" y="221" as="targetPoint" />
          </mxGeometry>
        </mxCell>
        <mxCell id="csp5jKro6aII4pgKmo1C-7" value="竞赛" style="text;html=1;strokeColor=none;fillColor=none;align=left;verticalAlign=middle;whiteSpace=wrap;rounded=0;fontFamily=Source Han Sans;fontSize=21;fontColor=#13273E;fontStyle=1" parent="1" vertex="1">
          <mxGeometry x="60" y="840" width="50" height="30" as="geometry" />
        </mxCell>
        <mxCell id="csp5jKro6aII4pgKmo1C-9" value="" style="endArrow=none;html=1;rounded=0;fontFamily=宋体-简;fontSize=16;fontColor=#2B4259;strokeColor=#404964;" parent="1" edge="1">
          <mxGeometry width="50" height="50" relative="1" as="geometry">
            <mxPoint x="60" y="872" as="sourcePoint" />
            <mxPoint x="526" y="872" as="targetPoint" />
          </mxGeometry>
        </mxCell>
        <mxCell id="csp5jKro6aII4pgKmo1C-24" value="&lt;p class=&quot;MsoNormal&quot;&gt;基于唇语识别的听障人士视频语言理解技术研究&lt;/p&gt;" style="text;html=1;strokeColor=none;fillColor=none;align=left;verticalAlign=middle;whiteSpace=wrap;rounded=0;fontSize=15;fontFamily=Source Han Sans;fontStyle=1;fontColor=#404964;" parent="1" vertex="1">
          <mxGeometry x="60" y="238" width="416" height="20" as="geometry" />
        </mxCell>
        <mxCell id="csp5jKro6aII4pgKmo1C-25" value="&lt;p class=&quot;MsoNormal&quot;&gt;&lt;a&gt;MISVIS:一个高性能的医学影响分割可视化系统&lt;/a&gt;&lt;/p&gt;" style="text;html=1;strokeColor=none;fillColor=none;align=left;verticalAlign=middle;whiteSpace=wrap;rounded=0;fontSize=15;fontFamily=Source Han Sans;fontStyle=1;fontColor=#404964;" parent="1" vertex="1">
          <mxGeometry x="60" y="376" width="416" height="20" as="geometry" />
        </mxCell>
        <mxCell id="csp5jKro6aII4pgKmo1C-26" value="2022.3-2023.3" style="text;html=1;strokeColor=none;fillColor=none;align=right;verticalAlign=middle;whiteSpace=wrap;rounded=0;fontFamily=Source Han Sans;fontSize=15;fontColor=#6D7684;fontStyle=0" parent="1" vertex="1">
          <mxGeometry x="399" y="378.5" width="127" height="14" as="geometry" />
        </mxCell>
        <mxCell id="csp5jKro6aII4pgKmo1C-27" value="2022.4-至今" style="text;html=1;strokeColor=none;fillColor=none;align=right;verticalAlign=middle;whiteSpace=wrap;rounded=0;fontFamily=Source Han Sans;fontSize=15;fontColor=#6D7684;fontStyle=0" parent="1" vertex="1">
          <mxGeometry x="399" y="241" width="127" height="14" as="geometry" />
        </mxCell>
        <mxCell id="csp5jKro6aII4pgKmo1C-30" value="&lt;p style=&quot;line-height: 1.6;&quot;&gt;&lt;br&gt;&lt;/p&gt;" style="text;html=1;strokeColor=none;fillColor=none;align=left;verticalAlign=middle;whiteSpace=wrap;rounded=0;fontFamily=Source Han Sans;fontSize=12;fontColor=#6D7684;fontStyle=0" parent="1" vertex="1">
          <mxGeometry x="60" y="267" width="466" height="93" as="geometry" />
        </mxCell>
        <mxCell id="8V30FOKsPtYKY0wyYov8-1" value="" style="shape=image;aspect=fixed;image=data:image/svg+xml,PD94bWwgdmVyc2lvbj0iMS4wIiBzdGFuZGFsb25lPSJubyI/PjwhRE9DVFlQRSBzdmcgUFVCTElDICItLy9XM0MvL0RURCBTVkcgMS4xLy9FTiIgImh0dHA6Ly93d3cudzMub3JnL0dyYXBoaWNzL1NWRy8xLjEvRFREL3N2ZzExLmR0ZCI+PHN2ZyB0PSIxNjUzNDE1ODM0MTI0IiBjbGFzcz0iaWNvbiIgdmlld0JveD0iMCAwIDEwMjQgMTAyNCIgdmVyc2lvbj0iMS4xIiB4bWxucz0iaHR0cDovL3d3dy53My5vcmcvMjAwMC9zdmciIHAtaWQ9Ijc0NzEiIHhtbG5zOnhsaW5rPSJodHRwOi8vd3d3LnczLm9yZy8xOTk5L3hsaW5rIiB3aWR0aD0iMjAwIiBoZWlnaHQ9IjIwMCI+PGRlZnM+PHN0eWxlIHR5cGU9InRleHQvY3NzIj5AZm9udC1mYWNlIHsgZm9udC1mYW1pbHk6IGZlZWRiYWNrLWljb25mb250OyBzcmM6IHVybCgiLy9hdC5hbGljZG4uY29tL3QvZm9udF8xMDMxMTU4X3U2OXc4eWh4ZHUud29mZjI/dD0xNjMwMDMzNzU5OTQ0IikgZm9ybWF0KCJ3b2ZmMiIpLCB1cmwoIi8vYXQuYWxpY2RuLmNvbS90L2ZvbnRfMTAzMTE1OF91Njl3OHloeGR1LndvZmY/dD0xNjMwMDMzNzU5OTQ0IikgZm9ybWF0KCJ3b2ZmIiksIHVybCgiLy9hdC5hbGljZG4uY29tL3QvZm9udF8xMDMxMTU4X3U2OXc4eWh4ZHUudHRmP3Q9MTYzMDAzMzc1OTk0NCIpIGZvcm1hdCgidHJ1ZXR5cGUiKTsgfQo8L3N0eWxlPjwvZGVmcz48cGF0aCBkPSJNOTQyLjA4IDczOC4zMDRjLTI1LjYtMjMuNTUyLTU1LjI5Ni00Ny4xMDQtNzYuOC02MS40NC0yNy42NDgtMTkuNDU2LTU3LjM0NC0zOC45MTItODQuOTkyLTUxLjItNDMuMDA4LTIxLjUwNC01OS4zOTItMjUuNi03MC42NTYtMjUuNi0xOS40NTYgMC0zNS44NCAxMC4yNC01MS4yIDI5LjY5Ni04LjE5MiAxMi4yODgtMTcuNDA4IDI5LjY5Ni0yMy41NTIgNDUuMDU2LTQuMDk2IDEwLjI0LTEyLjI4OCAyNy42NDgtMTcuNDA4IDMzLjc5Mi04LjE5Mi0yLjA0OC0zMS43NDQtMTIuMjg4LTcwLjY1Ni0zNy44ODgtMzUuODQtMjUuNi03NC43NTItNTcuMzQ0LTEwNC40NDgtODQuOTkyLTI5LjY5Ni0yOS42OTYtNTkuMzkyLTY4LjYwOC04NC45OTItMTA0LjQ0OC0yNS42LTM3Ljg4OC0zNS44NC02MS40NC0zNy44ODgtNzAuNjU2IDYuMTQ0LTQuMDk2IDIzLjU1Mi0xMi4yODggMzMuNzkyLTE3LjQwOCAxNS4zNi02LjE0NCAzMS43NDQtMTIuMjg4IDQ1LjA1Ni0yMy41NTIgMjEuNTA0LTE1LjM2IDI5LjY5Ni0zMS43NDQgMjkuNjk2LTUxLjIgMC0xMC4yNC0yLjA0OC0yNy42NDgtMjUuNi03MC42NTYtMTIuMjg4LTI1LjYtMzEuNzQ0LTU1LjI5Ni01MS4yLTg0Ljk5Mi0xNS4zNi0yMS41MDQtMzguOTEyLTUxLjItNjEuNDQtNzYuOC0yNy42NDgtMjcuNjQ4LTQ3LjEwNC00MC45Ni02Ni41Ni00MC45Ni00Ny4xMDQgMC0xMDAuMzUyIDY4LjYwOC0xMTQuNjg4IDg3LjA0LTE5LjQ1NiAyNS42LTY2LjU2IDk2LjI1Ni02Ni41NiAxNTkuNzQ0IDAgNTkuMzkyIDQwLjk2IDEzOC4yNCA3NC43NTIgMTk0LjU2IDQ1LjA1NiA3Mi43MDQgMTA4LjU0NCAxNTMuNiAxNzcuMTUyIDIyNC4yNTZsMjEuNTA0IDIxLjUwNCAwIDBjNzAuNjU2IDY4LjYwOCAxNDkuNTA0IDEzMi4wOTYgMjI0LjI1NiAxNzcuMTUyIDIzLjU1MiAxNS4zNiA1MS4yIDI5LjY5NiA3OC44NDggNDMuMDA4bDAgMGM0LjA5NiAyLjA0OCA2LjE0NCAyLjA0OCAxMC4yNCAyLjA0OCAxNS4zNiAwIDI3LjY0OC0xMi4yODggMjcuNjQ4LTI3LjY0OCAwLTEwLjI0LTYuMTQ0LTIxLjUwNC0xNy40MDgtMjUuNi0yMS41MDQtMTAuMjQtNDUuMDU2LTIzLjU1Mi03MC42NTYtMzguOTEyLTcwLjY1Ni00My4wMDgtMTQ1LjQwOC0xMDIuNC0yMTIuOTkyLTE2OC45NmwtMjEuNTA0LTIxLjUwNGMtNjYuNTYtNjguNjA4LTEyNS45NTItMTQzLjM2LTE2OC45Ni0yMTIuOTkyLTQzLjAwOC02OC42MDgtNjYuNTYtMTI4LTY2LjU2LTE2My44NCAwLTMxLjc0NCAxOS40NTYtNzguODQ4IDUzLjI0OC0xMjMuOTA0IDE1LjM2LTE5LjQ1NiAyOS42OTYtMzcuODg4IDQ1LjA1Ni01MS4yIDE1LjM2LTEzLjMxMiAyMy41NTItMTcuNDA4IDI3LjY0OC0xNy40MDggMTAuMjQgNC4wOTYgNDMuMDA4IDMxLjc0NCA4Ny4wNCA5OC4zMDQgMTcuNDA4IDI1LjYgMzMuNzkyIDUxLjIgNDUuMDU2IDc0Ljc1MiAxNS4zNiAyNy42NDggMTcuNDA4IDQwLjk2IDE3LjQwOCA0My4wMDggMCAwLTQuMDk2IDQuMDk2LTEwLjI0IDguMTkyLTguMTkyIDQuMDk2LTIxLjUwNCAxMC4yNC0zMS43NDQgMTUuMzYtMTUuMzYgNi4xNDQtMjcuNjQ4IDEyLjI4OC00MC45NiAxOS40NTYtMTkuNDU2IDEyLjI4OC0yNy42NDggMjcuNjQ4LTI3LjY0OCA0NS4wNTYgMCA4LjE5MiAwIDMzLjc5MiA0OS4xNTIgMTA0LjQ0OCAyNS42IDM3Ljg4OCA1OS4zOTIgODAuODk2IDkyLjE2IDExMi42NGwwIDBjMzEuNzQ0IDMxLjc0NCA3NC43NTIgNjYuNTYgMTEyLjY0IDkyLjE2IDcwLjY1NiA0Ny4xMDQgOTYuMjU2IDQ5LjE1MiAxMDQuNDQ4IDQ5LjE1MmwwIDBjMTcuNDA4IDAgMzEuNzQ0LTguMTkyIDQ1LjA1Ni0yNy42NDggOC4xOTItMTAuMjQgMTIuMjg4LTI1LjYgMTkuNDU2LTQwLjk2IDQuMDk2LTEwLjI0IDEwLjI0LTIzLjU1MiAxNS4zNi0zMS43NDQgNi4xNDQtNC4wOTYgMTAuMjQtNi4xNDQgMTAuMjQtNi4xNDQgMi4wNDggMCAxNS4zNiAyLjA0OCA0My4wMDggMTcuNDA4IDIxLjUwNCAxMi4yODggNDkuMTUyIDI3LjY0OCA3NC43NTIgNDUuMDU2IDYzLjQ4OCA0NS4wNTYgOTQuMjA4IDc2LjggOTguMzA0IDg3LjA0LTIuMDQ4IDQuMDk2LTYuMTQ0IDEyLjI4OC0xNy40MDggMjcuNjQ4LTEyLjI4OCAxNS4zNi0zMS43NDQgMzEuNzQ0LTUxLjIgNDUuMDU2LTI5LjY5NiAyMS41MDQtNjEuNDQgMzguOTEyLTg3LjA0IDQ3LjEwNGwwIDBjLTEwLjI0IDQuMDk2LTE3LjQwOCAxNS4zNi0xNy40MDggMjUuNiAwIDE1LjM2IDEyLjI4OCAyNy42NDggMjcuNjQ4IDI3LjY0OCAyLjA0OCAwIDQuMDk2IDAgNi4xNDQtMi4wNDhsMCAwYzIuMDQ4IDAgMi4wNDggMCA0LjA5Ni0yLjA0OGwwIDBjNDUuMDU2LTE1LjM2IDgyLjk0NC00MC45NiAxMDIuNC01NS4yOTYgMjEuNTA0LTE1LjM2IDg3LjA0LTcwLjY1NiA4Ny4wNC0xMTUuNzEyQzk4Mi4wMTYgNzg1LjQwOCA5NjkuNzI4IDc2NS45NTIgOTQyLjA4IDczOC4zMDR6IiBwLWlkPSI3NDcyIiBmaWxsPSIjMzMzMzMzIj48L3BhdGg+PC9zdmc+;" parent="1" vertex="1">
          <mxGeometry x="64" y="127" width="16" height="16" as="geometry" />
        </mxCell>
        <mxCell id="AF2Ux_LV5sccvWK5wioI-11" value="&lt;p style=&quot;text-align:center;&quot; align=&quot;center&quot; class=&quot;MsoNormal&quot;&gt;“泰迪杯”数据挖掘挑战赛国家三等奖&lt;span&gt;&lt;/span&gt;&lt;/p&gt;" style="text;html=1;strokeColor=none;fillColor=none;align=left;verticalAlign=middle;whiteSpace=wrap;rounded=0;fontSize=15;fontFamily=Source Han Sans;fontStyle=1;fontColor=#404964;" parent="1" vertex="1">
          <mxGeometry x="60" y="889" width="416" height="20" as="geometry" />
        </mxCell>
        <mxCell id="AF2Ux_LV5sccvWK5wioI-12" value="2022.4" style="text;html=1;strokeColor=none;fillColor=none;align=right;verticalAlign=middle;whiteSpace=wrap;rounded=0;fontFamily=Source Han Sans;fontSize=15;fontColor=#6D7684;fontStyle=0" parent="1" vertex="1">
          <mxGeometry x="399" y="892" width="126" height="14" as="geometry" />
        </mxCell>
        <mxCell id="AF2Ux_LV5sccvWK5wioI-19" value="&lt;p style=&quot;line-height: 1.6;&quot;&gt;&lt;br&gt;&lt;/p&gt;" style="text;html=1;strokeColor=none;fillColor=none;align=left;verticalAlign=middle;whiteSpace=wrap;rounded=0;fontFamily=Source Han Sans;fontSize=12;fontColor=#6D7684;fontStyle=0" parent="1" vertex="1">
          <mxGeometry x="60" y="917" width="466" height="55.73" as="geometry" />
        </mxCell>
        <mxCell id="csp5jKro6aII4pgKmo1C-38" value="多线程 Web 服务器" style="text;html=1;strokeColor=none;fillColor=none;align=left;verticalAlign=middle;whiteSpace=wrap;rounded=0;fontSize=15;fontFamily=Source Han Sans;fontStyle=1;fontColor=#404964;" parent="1" vertex="1">
          <mxGeometry x="60" y="728.77" width="416" height="20" as="geometry" />
        </mxCell>
        <mxCell id="csp5jKro6aII4pgKmo1C-40" value="2021.9" style="text;html=1;strokeColor=none;fillColor=none;align=right;verticalAlign=middle;whiteSpace=wrap;rounded=0;fontFamily=Source Han Sans;fontSize=15;fontColor=#6D7684;fontStyle=0" parent="1" vertex="1">
          <mxGeometry x="400" y="730.77" width="126" height="14" as="geometry" />
        </mxCell>
        <mxCell id="csp5jKro6aII4pgKmo1C-41" value="&lt;p style=&quot;line-height: 1.6;&quot;&gt;使用 C++ 实现的 Web 服务器原型，能够对多种类型的 HTTP 请求报文进行解析，并构建响应报文。实现了系统对于网络请求的多线程响应，并基于 Qt 实现了易于操作的图形界面。系统具备一定的异常处理功能。&lt;/p&gt;" style="text;html=1;strokeColor=none;fillColor=none;align=left;verticalAlign=middle;rounded=0;fontFamily=Source Han Sans;fontSize=12;fontColor=#6D7684;fontStyle=0;whiteSpace=wrap;" parent="1" vertex="1">
          <mxGeometry x="60" y="756.77" width="474" height="55.73" as="geometry" />
        </mxCell>
        <mxCell id="AF2Ux_LV5sccvWK5wioI-1" value="仿真五段重定向流水线 &lt;span&gt;CPU&lt;/span&gt;" style="text;html=1;strokeColor=none;fillColor=none;align=left;verticalAlign=middle;whiteSpace=wrap;rounded=0;fontSize=15;fontFamily=Source Han Sans;fontStyle=1;fontColor=#404964;" parent="1" vertex="1">
          <mxGeometry x="60" y="632.27" width="416" height="20" as="geometry" />
        </mxCell>
        <mxCell id="AF2Ux_LV5sccvWK5wioI-2" value="2020.3" style="text;html=1;strokeColor=none;fillColor=none;align=right;verticalAlign=middle;whiteSpace=wrap;rounded=0;fontFamily=Source Han Sans;fontSize=15;fontColor=#6D7684;fontStyle=0" parent="1" vertex="1">
          <mxGeometry x="479" y="635.27" width="47" height="14" as="geometry" />
        </mxCell>
        <mxCell id="AF2Ux_LV5sccvWK5wioI-3" value="&lt;p style=&quot;line-height: 1.6;&quot;&gt;使用电路仿真软件 Logisim 完成电路绘制，系统支持 28 条 MIPS 指令，实现了多级嵌套中断和经典五段流水线，通过重定向消解数据冲突，实现分支预测算法提升性能，最终能运行具有一定复杂度的测试程序。&lt;/p&gt;" style="text;html=1;strokeColor=none;fillColor=none;align=left;verticalAlign=middle;whiteSpace=wrap;rounded=0;fontFamily=Source Han Sans;fontSize=12;fontColor=#6D7684;fontStyle=0" parent="1" vertex="1">
          <mxGeometry x="60" y="660.27" width="466" height="55" as="geometry" />
        </mxCell>
        <mxCell id="yd8UG1YGdG23kV3HeNFb-2" value="&lt;font style=&quot;font-size: 14px;&quot;&gt;学院&amp;nbsp; &amp;nbsp; 计算机科学与技术&lt;/font&gt;" style="text;html=1;strokeColor=none;fillColor=none;align=left;verticalAlign=middle;whiteSpace=wrap;rounded=0;fontFamily=Source Han Sans;fontSize=12;fontColor=#6D7684;fontStyle=0" vertex="1" parent="1">
          <mxGeometry x="568" y="238" width="199" height="23" as="geometry" />
        </mxCell>
        <mxCell id="yd8UG1YGdG23kV3HeNFb-3" value="&lt;font style=&quot;font-size: 14px;&quot;&gt;本科特优生&lt;/font&gt;" style="text;html=1;strokeColor=none;fillColor=none;align=left;verticalAlign=middle;whiteSpace=wrap;rounded=0;fontFamily=Source Han Sans;fontSize=12;fontColor=#404964;fontStyle=1" vertex="1" parent="1">
          <mxGeometry x="568" y="523.5" width="143" height="23" as="geometry" />
        </mxCell>
        <mxCell id="yd8UG1YGdG23kV3HeNFb-5" value="&lt;font style=&quot;font-size: 14px;&quot;&gt;2022&lt;/font&gt;" style="text;html=1;strokeColor=none;fillColor=none;align=right;verticalAlign=middle;whiteSpace=wrap;rounded=0;fontFamily=Source Han Sans;fontSize=12;fontColor=#404964;fontStyle=1" vertex="1" parent="1">
          <mxGeometry x="737" y="523.5" width="30" height="20" as="geometry" />
        </mxCell>
        <mxCell id="yd8UG1YGdG23kV3HeNFb-7" value="&lt;p style=&quot;line-height: 1.6;&quot;&gt;国家级大创&lt;/p&gt;" style="text;html=1;strokeColor=none;fillColor=none;align=left;verticalAlign=middle;whiteSpace=wrap;rounded=0;fontFamily=Source Han Sans;fontSize=12;fontColor=#6D7684;fontStyle=0" vertex="1" parent="1">
          <mxGeometry x="60" y="270" width="466" height="55" as="geometry" />
        </mxCell>
        <mxCell id="yd8UG1YGdG23kV3HeNFb-9" value="&lt;font style=&quot;font-size: 14px;&quot;&gt;学习优秀奖学金&lt;/font&gt;" style="text;html=1;strokeColor=none;fillColor=none;align=left;verticalAlign=middle;whiteSpace=wrap;rounded=0;fontFamily=Source Han Sans;fontSize=12;fontColor=#6D7684;fontStyle=0" vertex="1" parent="1">
          <mxGeometry x="568" y="626.27" width="143" height="23" as="geometry" />
        </mxCell>
        <mxCell id="yd8UG1YGdG23kV3HeNFb-10" value="&lt;font style=&quot;font-size: 14px;&quot;&gt;2021&lt;/font&gt;" style="text;html=1;strokeColor=none;fillColor=none;align=right;verticalAlign=middle;whiteSpace=wrap;rounded=0;fontFamily=Source Han Sans;fontSize=12;fontColor=#6D7684;fontStyle=0" vertex="1" parent="1">
          <mxGeometry x="737" y="627.77" width="30" height="20" as="geometry" />
        </mxCell>
        <mxCell id="yd8UG1YGdG23kV3HeNFb-11" value="&lt;p style=&quot;&quot; class=&quot;MsoNormal&quot;&gt;“互联网+”大学生创新创业大赛基于AI技术的听障人士“再发声”行动项目校赛优秀奖&amp;nbsp;&lt;span&gt;&lt;/span&gt;&lt;/p&gt;" style="text;html=1;strokeColor=none;fillColor=none;align=left;verticalAlign=middle;whiteSpace=wrap;rounded=0;fontSize=15;fontFamily=Source Han Sans;fontStyle=1;fontColor=#404964;" vertex="1" parent="1">
          <mxGeometry x="64" y="960" width="416" height="20" as="geometry" />
        </mxCell>
      </root>
    </mxGraphModel>
  </diagram>
</mxfile>
